# xmcd
#
# Track frame offsets:
#	150
#	13703
#	24580
#	31695
#	51742
#	63399
#	76895
#	88441
#	98733
#	115211
#	132218
#	143346
#	155282
#
# Disc length: 2270 seconds
#
# Revision: 0
# Processed by: cddbd v1.5.2PL0 Copyright (c) Steve Scherf et al.
# Submitted via: EasyCDDAExtractor 16.0.8.1
#
DISCID=a208dc0d
DTITLE=Paul Simon - A Tribute to Simon and Garfunkel - America
DYEAR=1900
DGENRE=
TTITLE0=The Sound of Silence
TTITLE1=Cecilia
TTITLE2=59th Street Bridge Song
TTITLE3=Bridge Over Troubled Water
TTITLE4=Homeward Bound
TTITLE5=Scarborough Fair
TTITLE6=El Condor Pasa
TTITLE7=Wake Up Little Suzy
TTITLE8=Mrs Robinson
TTITLE9=The Boxer
TTITLE10=Keep the Customer Satisfied
TTITLE11=I am a Rock
TTITLE12=America
EXTD=
EXTT0=
EXTT1=
EXTT2=
EXTT3=
EXTT4=
EXTT5=
EXTT6=
EXTT7=
EXTT8=
EXTT9=
EXTT10=
EXTT11=
EXTT12=
PLAYORDER=
